<svg width="87" height="87" viewBox="0 0 87 87" fill="none" xmlns="http://www.w3.org/2000/svg">
<path fill="#E52323" class="st0" d="M13.8,22.5c3.3-3.3,7.7-5.1,12.3-5.1c4.6,0,9,1.8,12.3,5.1l5.1,5.1l5.1-5.1c1.6-1.7,3.5-3,5.6-3.9
	c2.1-0.9,4.4-1.4,6.7-1.4c2.3,0,4.6,0.4,6.7,1.3c2.1,0.9,4.1,2.2,5.7,3.8c1.6,1.6,2.9,3.6,3.8,5.7s1.3,4.4,1.3,6.7
	c0,2.3-0.5,4.6-1.4,6.7c-0.9,2.1-2.2,4-3.9,5.6L43.5,76.8L13.8,47.1c-3.3-3.3-5.1-7.7-5.1-12.3C8.7,30.2,10.5,25.8,13.8,22.5z"/>
	<path d="M55.1,20.2c1.9,0,3.7,0.4,5.5,1.1c1.8,0.7,3.4,1.8,4.7,3.1c1.4,1.4,2.4,3,3.1,4.7c0.7,1.8,1.1,3.7,1.1,5.6
		c0,1.9-0.4,3.8-1.2,5.6c-0.8,1.8-1.8,3.3-3.2,4.7l0,0l0,0L37.5,72.6L9.9,45c-2.7-2.7-4.2-6.3-4.2-10.2s1.5-7.5,4.2-10.2
		c2.7-2.7,6.3-4.2,10.2-4.2s7.5,1.5,10.2,4.2l5.1,5.1l2.1,2.1l2.1-2.1l5.1-5.1l0,0l0,0c1.3-1.4,2.9-2.5,4.7-3.2
		c1.8-0.8,3.6-1.2,5.6-1.2L55.1,20.2 M55.1,17.2c-0.1,0-0.1,0-0.2,0c-2.3,0-4.6,0.5-6.7,1.4c-2.1,0.9-4,2.2-5.6,3.9l-5.1,5.1
		l-5.1-5.1c-3.3-3.3-7.7-5.1-12.3-5.1c-4.6,0-9,1.8-12.3,5.1c-3.3,3.3-5.1,7.7-5.1,12.3c0,4.6,1.8,9,5.1,12.3l29.7,29.7l29.7-29.7
		c1.7-1.6,3-3.5,3.9-5.6c0.9-2.1,1.4-4.4,1.4-6.7c0-2.3-0.4-4.6-1.3-6.7c-0.9-2.1-2.2-4.1-3.8-5.7c-1.6-1.6-3.6-2.9-5.7-3.8
		C59.6,17.6,57.4,17.2,55.1,17.2L55.1,17.2z" fill="#000000"/>
</svg>
