<svg width="76" height="76" viewBox="0 0 76 76" fill="none" xmlns="http://www.w3.org/2000/svg">
<path opacity="0.2" d="M32.4859 20.7144L32.4862 20.7147L36.9398 25.1645L38 26.2238L39.0602 25.1645L43.5138 20.7147L43.5233 20.7052L43.5326 20.6956C44.7963 19.3871 46.3081 18.3434 47.9795 17.6254C49.651 16.9074 51.4487 16.5295 53.2678 16.5137C55.0868 16.4979 56.8908 16.8445 58.5745 17.5334L59.1425 16.1451L58.5745 17.5334C60.2582 18.2222 61.7878 19.2395 63.0742 20.5258C64.3605 21.8121 65.3778 23.3418 66.0666 25.0255C66.7555 26.7091 67.1021 28.5132 67.0863 30.3322C67.0705 32.1513 66.6925 33.949 65.9745 35.6205C65.2565 37.2919 64.2128 38.8036 62.9043 40.0674L62.8949 40.0765L62.8857 40.0858L38 64.9751L13.1144 40.0859C13.1144 40.0858 13.1144 40.0858 13.1144 40.0858C10.5461 37.5167 9.10327 34.0327 9.10327 30.4C9.10327 26.7672 10.5461 23.2832 13.1144 20.7141C15.6835 18.1459 19.1674 16.7032 22.8 16.7032C26.4328 16.7032 29.9168 18.146 32.4859 20.7144Z" stroke="#E52323" stroke-width="3"/>
</svg>
