<svg width="40" height="40" viewBox="0 0 40 40" fill="none" xmlns="http://www.w3.org/2000/svg">
<path fill-rule="evenodd" clip-rule="evenodd" d="M6.344 10.344C7.84422 8.84424 9.87869 8.00172 12 8.00172C14.1213 8.00172 16.1558 8.84424 17.656 10.344L20 12.686L22.344 10.344C23.082 9.57993 23.9647 8.97047 24.9408 8.5512C25.9168 8.13192 26.9666 7.91124 28.0288 7.902C29.091 7.89277 30.1445 8.09519 31.1276 8.49744C32.1108 8.89968 33.004 9.49371 33.7552 10.2448C34.5063 10.996 35.1003 11.8892 35.5026 12.8724C35.9048 13.8555 36.1072 14.909 36.098 15.9712C36.0888 17.0335 35.8681 18.0832 35.4488 19.0592C35.0295 20.0353 34.4201 20.918 33.656 21.656L20 35.314L6.344 21.656C4.84423 20.1558 4.00171 18.1213 4.00171 16C4.00171 13.8787 4.84423 11.8442 6.344 10.344Z" fill="#E52323"/>
</svg>
