<svg width="87" height="87" viewBox="0 0 87 87" fill="none" xmlns="http://www.w3.org/2000/svg">
<path d="M61.957 66.3071C57.0619 71.2022 50.4227 73.9522 43.5 73.9522C36.5772 73.9522 29.938 71.2022 25.0429 66.3071C20.1478 61.4119 17.3978 54.7727 17.3978 47.85C17.3978 40.9273 20.1478 34.2881 25.0429 29.393C25.0429 39.15 26.1 47.85 39.15 52.2C39.15 43.5 43.5 17.4 50.025 13.05C54.375 21.75 56.8588 24.2991 61.9527 29.393C64.3806 31.8138 66.3062 34.6907 67.6186 37.8582C68.931 41.0257 69.6043 44.4214 69.6 47.85C69.6047 51.2783 68.9319 54.6737 67.6202 57.8412C66.3086 61.0086 64.384 63.8857 61.957 66.3071Z" fill="#ED4914" stroke="#B22B00" stroke-width="2" stroke-linecap="round" stroke-linejoin="round"/>
<path d="M34.2737 65.7764C35.4775 67.0228 36.9175 68.0169 38.5096 68.7009C40.1018 69.3848 41.8142 69.7448 43.547 69.7599C45.2797 69.7749 46.9982 69.4447 48.602 68.7886C50.2058 68.1324 51.6628 67.1634 52.8881 65.9381C54.1134 64.7128 55.0824 63.2558 55.7386 61.652C56.3948 60.0482 56.7249 58.3297 56.7099 56.597C56.6948 54.8642 56.3348 53.1518 55.6509 51.5596C54.967 49.9675 53.9728 48.5275 52.7264 47.3237C50.1816 44.7746 48.9375 43.5 46.7625 39.15C43.5 41.325 41.325 54.375 41.325 58.725C34.2737 58.725 30.45 56.55 30.45 56.55C30.45 59.8908 31.7246 63.2316 34.2737 65.7764Z" fill="#B22B00"/>
<path d="M55.957 66.307C51.0619 71.2022 44.4227 73.9522 37.5 73.9522C30.5772 73.9522 23.938 71.2022 19.0429 66.307C14.1478 61.4119 11.3978 54.7727 11.3978 47.85C11.3978 40.9273 14.1478 34.2881 19.0429 29.3929C19.0429 39.15 20.1 47.85 33.15 52.2C33.15 43.5 37.5 17.4 44.025 13.05C48.375 21.75 50.8588 24.2991 55.9527 29.3929C58.3806 31.8138 60.3062 34.6907 61.6186 37.8582C62.931 41.0257 63.6043 44.4214 63.6 47.85C63.6047 51.2783 62.9319 54.6737 61.6202 57.8412C60.3086 61.0086 58.384 63.8857 55.957 66.307V66.307Z" stroke="black" stroke-width="3" stroke-linecap="round" stroke-linejoin="round"/>
</svg>
