<svg width="76" height="76" viewBox="0 0 76 76" fill="none" xmlns="http://www.w3.org/2000/svg">
<path opacity="0.2" d="M40.4347 11.5858L40.4348 11.5863L44.5008 24.0959L44.5013 24.0972C44.8477 25.1598 45.5212 26.0856 46.4255 26.7424C47.3298 27.3992 48.4186 27.7534 49.5363 27.7542H49.5374H62.693C64.9173 27.7542 65.8493 30.6041 64.0458 31.9186C64.0457 31.9186 64.0457 31.9187 64.0456 31.9187C64.0453 31.919 64.0449 31.9192 64.0445 31.9195L53.4066 39.6472C52.5004 40.3046 51.8257 41.232 51.4791 42.2964C51.1325 43.3609 51.1319 44.5078 51.4774 45.5726L51.4776 45.5735L55.5436 58.0831L55.5439 58.084C56.2325 60.198 53.8098 61.9682 51.9997 60.6542C51.9997 60.6541 51.9996 60.6541 51.9995 60.654L41.3597 52.925L41.3594 52.9248C40.4542 52.2676 39.3643 51.9136 38.2457 51.9136C37.1271 51.9136 36.0371 52.2676 35.1319 52.9248L35.1316 52.925L24.4916 60.6542L24.4911 60.6546C22.6903 61.9638 20.2634 60.2039 20.9515 58.0831C20.9515 58.0829 20.9516 58.0827 20.9517 58.0826L25.0175 45.5735L25.0178 45.5726C25.3632 44.5078 25.3626 43.3609 25.016 42.2965C24.6695 41.2323 23.9951 40.3051 23.0893 39.6477C23.089 39.6476 23.0888 39.6474 23.0886 39.6472L12.4544 31.9233C12.454 31.923 12.4537 31.9228 12.4533 31.9225C10.6511 30.6092 11.5834 27.758 13.806 27.758H26.9574C26.9575 27.758 26.9576 27.758 26.9578 27.758C28.0762 27.7582 29.166 27.4046 30.0712 26.7478C30.9766 26.0909 31.6509 25.1644 31.9977 24.101L31.9981 24.0997L36.0641 11.5901L36.1126 11.4407C36.891 9.46704 39.7642 9.52055 40.4347 11.5858Z" stroke="#FF9922" stroke-width="3"/>
</svg>
