<svg width="76" height="76" viewBox="0 0 76 76" fill="none" xmlns="http://www.w3.org/2000/svg">
<g opacity="0.2">
<path d="M12.5048 45.451C12.5321 45.0314 12.6738 44.6274 12.9145 44.2827L12.915 44.282L39.5143 6.28302C39.795 5.88233 40.196 5.58155 40.6593 5.42438C41.1225 5.2672 41.6238 5.26183 42.0903 5.40902L42.2158 5.44861C42.6308 5.60566 42.9924 5.87983 43.256 6.23907C43.5456 6.63369 43.7017 7.1104 43.7017 7.59985V7.59994V26.5999V28.0999H45.2017H60.4017H60.4023C60.8231 28.0998 61.2358 28.215 61.5955 28.433L62.373 27.1503L61.5955 28.433C61.9553 28.6511 62.2484 28.9637 62.4429 29.3367C62.6374 29.7098 62.7258 30.1291 62.6985 30.5489C62.6713 30.9687 62.5294 31.3731 62.2883 31.7178L35.6888 69.7172L35.6877 69.7188C35.4075 70.1202 35.0065 70.4218 34.5431 70.5796C34.0796 70.7374 33.5779 70.7432 33.111 70.5962C32.644 70.4492 32.2362 70.157 31.9467 69.7622C31.6573 69.3674 31.5014 68.8905 31.5017 68.4009V68.3999V49.3999V47.8999H30.0017H14.8017H14.801C14.3803 47.9001 13.9676 47.7849 13.6078 47.5668C13.248 47.3488 12.955 47.0362 12.7605 46.6631C12.566 46.2901 12.4776 45.8708 12.5048 45.451Z" stroke="#5900B2" stroke-width="3"/>
</g>
</svg>
