<svg width="190" height="30" viewBox="0 0 190 30" fill="none" xmlns="http://www.w3.org/2000/svg">
<circle cx="15" cy="15" r="15" fill="#5900B2"/>
<circle cx="55" cy="15" r="15" fill="#E52323"/>
<circle cx="95" cy="15" r="15" fill="#0088B2"/>
<circle cx="135" cy="15" r="15" fill="#FF9922"/>
<circle cx="175" cy="15" r="15" fill="#ED4914"/>
<path d="M8.99996 17.0001H8.99951L15.9991 7.00073L16 7.00102V12.0001V13.0001H17H21H21.0004L14.0007 22.9996L14 23.0007L14 23.0001V18.0001V17.0001H13H8.99996Z" stroke="white" stroke-width="2"/>
<path d="M179.243 20.243C178.118 21.3683 176.591 22.0005 175 22.0005C173.409 22.0005 171.882 21.3683 170.757 20.243C169.632 19.1177 169 17.5914 169 16C169 14.4086 169.632 12.8823 170.757 11.757C170.757 14 171 16 174 17C174 15 175 9 176.5 8C177.5 10 178.071 10.586 179.242 11.757C179.8 12.3135 180.243 12.9749 180.545 13.703C180.846 14.4312 181.001 15.2118 181 16C181.001 16.7881 180.846 17.5687 180.545 18.2968C180.243 19.025 179.801 19.6864 179.243 20.243V20.243Z" stroke="white" stroke-width="2" stroke-linecap="round" stroke-linejoin="round"/>
<path d="M135.001 8.23831L133.931 11.5292L133.931 11.5301C133.8 11.9314 133.545 12.281 133.204 12.5289C132.862 12.7767 132.451 12.9101 132.029 12.9101C132.029 12.9101 132.029 12.9101 132.029 12.9101H128.568C128.568 12.9102 128.568 12.9103 128.568 12.9103C128.568 12.9107 128.568 12.911 128.568 12.9113C128.568 12.9114 128.568 12.9114 128.568 12.9114C128.568 12.9115 128.568 12.9116 128.569 12.9116L131.366 14.9436C131.708 15.1917 131.963 15.5417 132.094 15.9433C132.224 16.345 132.225 16.7778 132.094 17.1796L132.094 17.1802L131.024 20.4719L131.024 20.4722M135.001 8.23831L138.975 20.4719L136.175 18.438L136.174 18.4379C135.833 18.1899 135.422 18.0563 134.999 18.0563C134.577 18.0563 134.166 18.1899 133.824 18.4379L133.824 18.438L131.024 20.472L131.024 20.4722M135.001 8.23831L136.07 11.5282L136.07 11.5291C136.201 11.9301 136.455 12.2794 136.796 12.5273C137.138 12.7751 137.548 12.9088 137.97 12.9091H137.971H141.433C141.433 12.9094 141.433 12.9098 141.433 12.9101C141.433 12.9102 141.433 12.9104 141.433 12.9105C141.433 12.9105 141.432 12.9106 141.432 12.9106L138.634 14.9436C138.634 14.9438 138.633 14.9439 138.633 14.944C138.292 15.1921 138.037 15.5419 137.906 15.9433C137.776 16.345 137.775 16.7778 137.906 17.1796L137.906 17.1802L138.976 20.4722L138.976 20.4723C138.976 20.4724 138.976 20.4725 138.975 20.4726C138.975 20.4724 138.975 20.4722 138.975 20.472L135.001 8.23831ZM131.024 20.4722L131.024 20.4722L131.024 20.4723L131.024 20.4722Z" stroke="white" stroke-width="2"/>
<path d="M53.1211 10.8793L53.1213 10.8795L54.2933 12.0505L55.0001 12.7567L55.7069 12.0505L56.8789 10.8795L56.8852 10.8732L56.8914 10.8668C57.1682 10.5803 57.4992 10.3517 57.8652 10.1945C58.2312 10.0373 58.6249 9.9545 59.0232 9.95104C59.4215 9.94758 59.8166 10.0235 60.1853 10.1743C60.554 10.3252 60.8889 10.5479 61.1706 10.8296C61.4523 11.1113 61.675 11.4462 61.8259 11.8149C61.9767 12.1836 62.0526 12.5787 62.0492 12.977C62.0457 13.3753 61.9629 13.769 61.8057 14.135C61.6485 14.501 61.4199 14.8321 61.1334 15.1088L61.1271 15.1149L61.121 15.121L55.0001 21.2428L48.8793 15.1211C48.8793 15.1211 48.8793 15.121 48.8793 15.121C48.3169 14.5584 48.001 13.7955 48.001 13.0001C48.001 12.2047 48.3168 11.4419 48.8791 10.8793C48.8792 10.8793 48.8792 10.8792 48.8792 10.8792C48.8793 10.8792 48.8793 10.8791 48.8793 10.8791C49.4419 10.3168 50.2047 10.0009 51.0001 10.0009C51.7956 10.0009 52.5585 10.3169 53.1211 10.8793Z" stroke="white" stroke-width="2"/>
<path d="M99.2429 20.2427L99.2429 20.2428C98.1176 21.3681 96.5914 22.0002 95 22.0002C93.4086 22.0002 91.8824 21.3681 90.7571 20.2428C89.6318 19.1175 88.9996 17.5913 88.9996 15.9999C88.9996 14.4085 89.6318 12.8823 90.7571 11.757L95 7.5141L99.2429 11.757L99.2429 11.757C99.8001 12.3142 100.242 12.9757 100.544 13.7036C100.845 14.4316 101 15.2119 101 15.9999C101 16.7879 100.845 17.5681 100.544 18.2961C100.242 19.0241 99.8001 19.6856 99.2429 20.2427Z" stroke="white" stroke-width="2"/>
</svg>
