<svg width="87" height="87" viewBox="0 0 87 87" fill="none" xmlns="http://www.w3.org/2000/svg">
<path fill-rule="evenodd" clip-rule="evenodd" d="M65.0325 69.3825C59.3218 75.0933 51.5763 78.3016 43.5 78.3016C35.4238 78.3016 27.6783 75.0933 21.9675 69.3825C16.2568 63.6717 13.0485 55.9263 13.0485 47.85C13.0485 39.7738 16.2568 32.0283 21.9675 26.3175L43.5 4.78503L65.0325 26.3175C67.8604 29.1451 70.1036 32.502 71.6341 36.1966C73.1645 39.8912 73.9522 43.851 73.9522 47.85C73.9522 51.849 73.1645 55.8089 71.6341 59.5034C70.1036 63.198 67.8604 66.5549 65.0325 69.3825Z" fill="#0088B3"/>
<path d="M57.9719 68.3218L57.9719 68.3219C52.5424 73.7513 45.1785 76.8016 37.5 76.8016C29.8216 76.8016 22.4577 73.7513 17.0282 68.3219C11.5987 62.8924 8.54848 55.5285 8.54848 47.85C8.54848 40.1716 11.5987 32.8077 17.0282 27.3782L37.5 6.90636L57.9719 27.3782L57.9719 27.3782C60.6605 30.0665 62.7932 33.2581 64.2483 36.7707C65.7033 40.2832 66.4522 44.048 66.4522 47.85C66.4522 51.652 65.7033 55.4168 64.2483 58.9294C62.7932 62.442 60.6605 65.6335 57.9719 68.3218Z" stroke="black" stroke-width="3"/>
</svg>
