<svg width="76" height="76" viewBox="0 0 76 76" fill="none" xmlns="http://www.w3.org/2000/svg">
<path opacity="0.2" d="M55.3957 59.1957L55.3957 59.1958C50.782 63.8094 44.5246 66.4014 37.9999 66.4014C31.4752 66.4014 25.2177 63.8094 20.6041 59.1958C15.9904 54.5821 13.3985 48.3247 13.3985 41.8C13.3985 35.2753 15.9905 29.0179 20.6041 24.4042L37.9999 7.00844L55.3957 24.4042L55.3957 24.4043C57.6803 26.6886 59.4926 29.4006 60.729 32.3854C61.9654 35.3702 62.6018 38.5693 62.6018 41.8C62.6018 45.0307 61.9654 48.2298 60.729 51.2146C59.4926 54.1994 57.6803 56.9114 55.3957 59.1957Z" stroke="#0088B2" stroke-width="4"/>
</svg>
