<svg width="40" height="40" viewBox="0 0 40 40" fill="none" xmlns="http://www.w3.org/2000/svg">
<path d="M28.486 30.486C26.2354 32.7366 23.1828 34.001 20 34.001C16.8171 34.001 13.7646 32.7366 11.514 30.486C9.26335 28.2354 7.99896 25.1829 7.99896 22C7.99896 18.8171 9.26335 15.7646 11.514 13.514C11.514 18 12 22 18 24C18 20 20 8 23 6C25 10 26.142 11.172 28.484 13.514C29.6003 14.627 30.4856 15.9497 31.089 17.4061C31.6924 18.8624 32.002 20.4236 32 22C32.0021 23.5762 31.6928 25.1373 31.0898 26.5936C30.4867 28.0499 29.6018 29.3727 28.486 30.486Z" fill="#ED4914" stroke="#B22B00" stroke-width="2" stroke-linecap="round" stroke-linejoin="round"/>
<path d="M15.758 30.242C16.3115 30.8151 16.9736 31.2722 17.7056 31.5866C18.4376 31.9011 19.2249 32.0666 20.0216 32.0735C20.8183 32.0804 21.6083 31.9286 22.3457 31.6269C23.0831 31.3252 23.753 30.8797 24.3164 30.3164C24.8797 29.753 25.3252 29.0831 25.6269 28.3457C25.9286 27.6083 26.0804 26.8183 26.0735 26.0216C26.0666 25.2249 25.9011 24.4376 25.5866 23.7056C25.2722 22.9735 24.8151 22.3115 24.242 21.758C23.072 20.586 22.5 20 21.5 18C20 19 19 25 19 27C15.758 27 14 26 14 26C14 27.536 14.586 29.072 15.758 30.242Z" fill="#B22B00"/>
</svg>
