<svg width="40" height="40" viewBox="0 0 40 40" fill="none" xmlns="http://www.w3.org/2000/svg">
<path d="M18.098 5.854C18.698 4.012 21.304 4.012 21.902 5.854L24.042 12.438C24.1728 12.839 24.4269 13.1884 24.7682 13.4362C25.1094 13.6841 25.5203 13.8177 25.942 13.818H32.866C34.804 13.818 35.608 16.298 34.042 17.438L28.442 21.506C28.1001 21.7541 27.8455 22.104 27.7147 22.5057C27.5839 22.9074 27.5837 23.3402 27.714 23.742L29.854 30.326C30.454 32.168 28.344 33.702 26.774 32.562L21.174 28.494C20.8324 28.246 20.4211 28.1125 19.999 28.1125C19.5769 28.1125 19.1656 28.246 18.824 28.494L13.224 32.562C11.656 33.702 9.54801 32.168 10.146 30.326L12.286 23.742C12.4164 23.3402 12.4161 22.9074 12.2853 22.5057C12.1546 22.104 11.8999 21.7541 11.558 21.506L5.96001 17.44C4.39401 16.3 5.20001 13.82 7.13601 13.82H14.058C14.4801 13.8201 14.8914 13.6867 15.2331 13.4388C15.5747 13.1909 15.8292 12.8413 15.96 12.44L18.1 5.856L18.098 5.854Z" fill="#FF9922"/>
</svg>
